<svg width="38" height="44" viewBox="0 0 38 44" fill="none" xmlns="http://www.w3.org/2000/svg">
<path d="M36.0002 16C33.0002 16 28.0006 16 26.0004 21C24.0001 26 26.5003 30.5 29.0003 33" stroke="black" stroke-width="4" stroke-linecap="round" stroke-linejoin="round"/>
<path d="M14 8H36" stroke="black" stroke-width="4" stroke-linecap="round" stroke-linejoin="round"/>
<path d="M16.0004 2H34.0005C35.1051 2 36.0005 2.89543 36.0005 4V22.2876C36.0005 25.7198 34.4 28.9554 31.6644 31.0283C28.0224 33.7881 23.0881 37.5088 21.0004 39C17.5004 41.5 11.0004 44 6.00071 39C1.00096 34 2.25106 27.443 6.00091 24C9.75071 20.557 14.0004 17.1519 14.0004 17.1519V4C14.0004 2.89543 14.8958 2 16.0004 2Z" stroke="black" stroke-width="4" stroke-linecap="round" stroke-linejoin="round"/>
</svg>
